<svg version="1.0" xmlns="http://www.w3.org/2000/svg"
 width="300.000000pt" height="300.000000pt" viewBox="0 0 300.000000 300.000000"
 preserveAspectRatio="xMidYMid meet">
<g transform="translate(0.000000,300.000000) scale(0.100000,-0.100000)"
fill="#000000" stroke="none">
<path d="M1440 2564 c-19 -6 -10 10 -197 -318 -86 -149 -188 -327 -228 -396
-84 -146 -97 -170 -91 -170 2 0 41 64 87 143 162 281 273 474 337 586 82 143
89 151 150 151 26 0 52 -4 58 -8 10 -7 79 -119 137 -222 14 -25 85 -148 157
-275 73 -126 141 -243 150 -260 10 -16 49 -84 87 -150 39 -66 81 -140 95 -165
32 -56 134 -235 158 -275 10 -16 53 -91 95 -165 43 -74 86 -148 95 -165 141
-240 173 -304 181 -355 l8 -55 -4 62 c-2 40 -10 72 -22 90 -11 15 -264 453
-563 973 -298 520 -552 953 -562 963 -19 16 -87 22 -128 11z"/>
<path d="M922 1506 c-314 -546 -572 -995 -572 -997 0 -2 518 -4 1150 -4 633 0
1150 1 1150 2 0 2 -13 24 -29 50 -16 27 -273 471 -571 988 -298 517 -544 943
-548 947 -4 4 -265 -439 -580 -986z m613 879 c19 -31 35 -58 35 -60 0 -3 11
-22 23 -43 23 -35 41 -66 103 -177 15 -27 33 -53 38 -57 6 -4 7 -8 3 -8 -5 0
0 -12 11 -27 10 -16 25 -39 32 -52 l12 -24 -60 7 c-57 6 -61 5 -81 -20 -15
-19 -21 -41 -21 -75 0 -70 -17 -60 -22 12 -6 81 -26 99 -112 99 -57 0 -63 -2
-78 -27 -9 -16 -19 -52 -23 -80 -9 -69 -25 -68 -25 2 0 59 -22 95 -57 95 -32
0 -98 -22 -116 -38 -18 -16 -5 9 103 193 28 50 66 115 83 145 59 107 66 119
89 154 13 20 24 36 25 36 1 0 18 -25 38 -55z m43 -515 c4 -92 8 -100 47 -100
l35 0 0 63 c0 34 4 67 8 73 5 8 26 10 67 5 l60 -6 27 -190 c14 -104 29 -205
32 -222 4 -30 2 -33 -20 -33 -14 0 -24 -6 -24 -14 0 -9 -18 -16 -51 -20 -41
-6 -49 -10 -45 -24 3 -9 33 -127 66 -262 34 -135 65 -261 71 -282 9 -34 12
-37 60 -43 47 -7 53 -11 106 -78 32 -40 58 -73 59 -75 2 -4 86 -23 177 -42 31
-6 57 -16 57 -21 0 -5 -318 -9 -810 -9 -550 0 -810 3 -810 10 0 13 4 15 131
35 l106 17 56 78 c54 75 58 78 114 91 l57 14 73 290 c40 160 73 293 73 298 0
4 -12 7 -27 7 -43 0 -73 11 -73 26 0 8 -10 14 -23 14 l-24 0 31 211 c34 232
32 226 107 231 l44 3 3 -72 3 -73 38 0 38 0 8 72 c3 40 9 76 12 81 2 4 35 7
71 5 l67 -3 3 -55z m-417 -142 c-30 -209 -33 -246 -22 -267 14 -25 72 -61 100
-61 11 0 21 -6 21 -12 -1 -37 -130 -522 -141 -529 -7 -4 -28 -10 -46 -14 -36
-6 -85 -53 -125 -117 -26 -42 -47 -51 -158 -68 -101 -15 -108 -18 -121 -43
-10 -17 -8 -24 11 -39 21 -17 64 -18 817 -18 528 0 801 3 814 10 26 14 24 46
-3 63 -13 8 -65 23 -117 33 l-95 19 -55 67 c-42 52 -66 72 -101 85 -25 9 -49
20 -54 24 -8 7 -135 496 -136 522 0 4 4 7 9 7 13 0 50 17 86 39 29 17 30 21
28 82 0 35 -10 126 -20 202 -11 75 -17 137 -13 137 4 0 15 -18 25 -40 10 -22
22 -40 27 -40 4 0 8 -5 8 -11 0 -9 48 -94 200 -354 10 -16 34 -59 55 -95 20
-36 40 -69 44 -75 5 -5 22 -35 38 -65 17 -30 40 -72 52 -92 11 -21 29 -53 40
-70 10 -18 32 -57 50 -86 17 -29 31 -57 31 -62 0 -6 4 -10 8 -10 4 0 13 -12
19 -27 12 -28 32 -64 116 -205 l45 -77 -161 -3 c-89 -2 -584 -1 -1099 2 l-937
5 66 115 c36 63 77 135 91 160 14 25 55 97 92 160 37 63 126 216 197 340 204
354 243 422 271 470 15 25 27 47 27 50 2 14 30 49 33 41 2 -6 -6 -74 -17 -153z"/>
<path d="M812 1498 c-55 -95 -118 -202 -139 -238 -124 -205 -391 -683 -398
-713 -4 -15 -4 -43 -1 -63 13 -68 -55 -65 1239 -62 639 2 1170 7 1180 12 9 4
17 13 17 18 0 7 -5 6 -14 -1 -9 -8 -334 -11 -1197 -11 -1048 0 -1185 1 -1198
15 -24 24 -19 105 9 151 24 42 48 82 81 142 63 112 295 512 315 544 13 21 24
39 24 42 0 2 30 55 66 117 37 63 76 130 86 149 11 19 25 41 30 48 6 7 9 15 6
18 -3 3 -51 -73 -106 -168z"/>
</g>
</svg>